<mxfile host="app.diagrams.net" agent="Mozilla/5.0 (X11; Linux x86_64; rv:136.0) Gecko/20100101 Firefox/136.0" version="26.1.0">
  <diagram name="Page-1" id="wOBzIdv409kFSk1WwmUp">
    <mxGraphModel dx="1577" dy="442" grid="1" gridSize="10" guides="1" tooltips="1" connect="1" arrows="1" fold="1" page="1" pageScale="1" pageWidth="850" pageHeight="1100" math="0" shadow="0">
      <root>
        <mxCell id="0" />
        <mxCell id="1" parent="0" />
        <mxCell id="p0pjNAmYiR38p7r7fA2l-3" style="edgeStyle=orthogonalEdgeStyle;rounded=0;orthogonalLoop=1;jettySize=auto;html=1;endArrow=none;startFill=0;" edge="1" parent="1" source="p0pjNAmYiR38p7r7fA2l-1">
          <mxGeometry relative="1" as="geometry">
            <mxPoint x="320" y="320" as="targetPoint" />
          </mxGeometry>
        </mxCell>
        <mxCell id="p0pjNAmYiR38p7r7fA2l-13" value="" style="edgeStyle=orthogonalEdgeStyle;rounded=0;orthogonalLoop=1;jettySize=auto;html=1;endArrow=none;startFill=0;" edge="1" parent="1" source="p0pjNAmYiR38p7r7fA2l-1" target="p0pjNAmYiR38p7r7fA2l-12">
          <mxGeometry relative="1" as="geometry" />
        </mxCell>
        <mxCell id="p0pjNAmYiR38p7r7fA2l-1" value="Patente" style="rounded=0;whiteSpace=wrap;html=1;" vertex="1" parent="1">
          <mxGeometry x="80" y="280" width="120" height="80" as="geometry" />
        </mxCell>
        <mxCell id="p0pjNAmYiR38p7r7fA2l-5" style="edgeStyle=orthogonalEdgeStyle;rounded=0;orthogonalLoop=1;jettySize=auto;html=1;endArrow=none;startFill=0;" edge="1" parent="1" source="p0pjNAmYiR38p7r7fA2l-4">
          <mxGeometry relative="1" as="geometry">
            <mxPoint x="520" y="320" as="targetPoint" />
          </mxGeometry>
        </mxCell>
        <mxCell id="p0pjNAmYiR38p7r7fA2l-4" value="Rilascio" style="rhombus;whiteSpace=wrap;html=1;" vertex="1" parent="1">
          <mxGeometry x="320" y="280" width="80" height="80" as="geometry" />
        </mxCell>
        <mxCell id="p0pjNAmYiR38p7r7fA2l-6" value="Provincia" style="rounded=0;whiteSpace=wrap;html=1;" vertex="1" parent="1">
          <mxGeometry x="520" y="280" width="120" height="80" as="geometry" />
        </mxCell>
        <mxCell id="p0pjNAmYiR38p7r7fA2l-29" value="" style="edgeStyle=orthogonalEdgeStyle;rounded=0;orthogonalLoop=1;jettySize=auto;html=1;endArrow=none;startFill=0;" edge="1" parent="1" source="p0pjNAmYiR38p7r7fA2l-10" target="p0pjNAmYiR38p7r7fA2l-28">
          <mxGeometry relative="1" as="geometry" />
        </mxCell>
        <mxCell id="p0pjNAmYiR38p7r7fA2l-10" value="Comune" style="whiteSpace=wrap;html=1;rounded=0;" vertex="1" parent="1">
          <mxGeometry x="80" y="920" width="120" height="80" as="geometry" />
        </mxCell>
        <mxCell id="p0pjNAmYiR38p7r7fA2l-15" value="" style="edgeStyle=orthogonalEdgeStyle;rounded=0;orthogonalLoop=1;jettySize=auto;html=1;endArrow=none;startFill=0;" edge="1" parent="1" source="p0pjNAmYiR38p7r7fA2l-12" target="p0pjNAmYiR38p7r7fA2l-14">
          <mxGeometry relative="1" as="geometry" />
        </mxCell>
        <mxCell id="p0pjNAmYiR38p7r7fA2l-12" value="Assegnazione" style="rhombus;whiteSpace=wrap;html=1;rounded=0;" vertex="1" parent="1">
          <mxGeometry x="90" y="440" width="100" height="80" as="geometry" />
        </mxCell>
        <mxCell id="p0pjNAmYiR38p7r7fA2l-17" value="" style="edgeStyle=orthogonalEdgeStyle;rounded=0;orthogonalLoop=1;jettySize=auto;html=1;endArrow=none;startFill=0;exitX=0;exitY=0.5;exitDx=0;exitDy=0;" edge="1" parent="1" source="p0pjNAmYiR38p7r7fA2l-1" target="p0pjNAmYiR38p7r7fA2l-16">
          <mxGeometry relative="1" as="geometry" />
        </mxCell>
        <mxCell id="p0pjNAmYiR38p7r7fA2l-22" value="" style="edgeStyle=orthogonalEdgeStyle;rounded=0;orthogonalLoop=1;jettySize=auto;html=1;endArrow=none;startFill=0;" edge="1" parent="1" source="p0pjNAmYiR38p7r7fA2l-14" target="p0pjNAmYiR38p7r7fA2l-21">
          <mxGeometry relative="1" as="geometry" />
        </mxCell>
        <mxCell id="p0pjNAmYiR38p7r7fA2l-14" value="Cittadino" style="whiteSpace=wrap;html=1;rounded=0;" vertex="1" parent="1">
          <mxGeometry x="80" y="600" width="120" height="80" as="geometry" />
        </mxCell>
        <mxCell id="p0pjNAmYiR38p7r7fA2l-19" value="" style="edgeStyle=orthogonalEdgeStyle;rounded=0;orthogonalLoop=1;jettySize=auto;html=1;endArrow=none;startFill=0;" edge="1" parent="1" source="p0pjNAmYiR38p7r7fA2l-16" target="p0pjNAmYiR38p7r7fA2l-18">
          <mxGeometry relative="1" as="geometry" />
        </mxCell>
        <mxCell id="p0pjNAmYiR38p7r7fA2l-16" value="Autorizza" style="rhombus;whiteSpace=wrap;html=1;rounded=0;" vertex="1" parent="1">
          <mxGeometry x="-180" y="380" width="80" height="80" as="geometry" />
        </mxCell>
        <mxCell id="p0pjNAmYiR38p7r7fA2l-26" value="" style="edgeStyle=orthogonalEdgeStyle;rounded=0;orthogonalLoop=1;jettySize=auto;html=1;endArrow=none;startFill=0;exitX=0.5;exitY=1;exitDx=0;exitDy=0;" edge="1" parent="1" source="p0pjNAmYiR38p7r7fA2l-18" target="p0pjNAmYiR38p7r7fA2l-25">
          <mxGeometry relative="1" as="geometry" />
        </mxCell>
        <mxCell id="p0pjNAmYiR38p7r7fA2l-18" value="Esaminatore" style="whiteSpace=wrap;html=1;rounded=0;" vertex="1" parent="1">
          <mxGeometry x="-200" y="600" width="120" height="80" as="geometry" />
        </mxCell>
        <mxCell id="p0pjNAmYiR38p7r7fA2l-23" style="edgeStyle=orthogonalEdgeStyle;rounded=0;orthogonalLoop=1;jettySize=auto;html=1;endArrow=none;startFill=0;entryX=0.5;entryY=0;entryDx=0;entryDy=0;" edge="1" parent="1" source="p0pjNAmYiR38p7r7fA2l-21" target="p0pjNAmYiR38p7r7fA2l-10">
          <mxGeometry relative="1" as="geometry">
            <mxPoint x="170" y="900" as="targetPoint" />
          </mxGeometry>
        </mxCell>
        <mxCell id="p0pjNAmYiR38p7r7fA2l-21" value="ResidenzaC" style="rhombus;whiteSpace=wrap;html=1;rounded=0;" vertex="1" parent="1">
          <mxGeometry x="100" y="760" width="80" height="80" as="geometry" />
        </mxCell>
        <mxCell id="p0pjNAmYiR38p7r7fA2l-32" style="edgeStyle=orthogonalEdgeStyle;rounded=0;orthogonalLoop=1;jettySize=auto;html=1;entryX=0;entryY=0.5;entryDx=0;entryDy=0;endArrow=none;startFill=0;" edge="1" parent="1" source="p0pjNAmYiR38p7r7fA2l-25" target="p0pjNAmYiR38p7r7fA2l-10">
          <mxGeometry relative="1" as="geometry" />
        </mxCell>
        <mxCell id="p0pjNAmYiR38p7r7fA2l-25" value="ResidenzaE" style="rhombus;whiteSpace=wrap;html=1;rounded=0;" vertex="1" parent="1">
          <mxGeometry x="-180" y="920" width="80" height="80" as="geometry" />
        </mxCell>
        <mxCell id="p0pjNAmYiR38p7r7fA2l-31" value="" style="edgeStyle=orthogonalEdgeStyle;rounded=0;orthogonalLoop=1;jettySize=auto;html=1;endArrow=none;startFill=0;" edge="1" parent="1" source="p0pjNAmYiR38p7r7fA2l-28" target="p0pjNAmYiR38p7r7fA2l-30">
          <mxGeometry relative="1" as="geometry" />
        </mxCell>
        <mxCell id="p0pjNAmYiR38p7r7fA2l-28" value="Locazione" style="rhombus;whiteSpace=wrap;html=1;rounded=0;" vertex="1" parent="1">
          <mxGeometry x="300" y="920" width="80" height="80" as="geometry" />
        </mxCell>
        <mxCell id="p0pjNAmYiR38p7r7fA2l-30" value="Regione" style="whiteSpace=wrap;html=1;rounded=0;" vertex="1" parent="1">
          <mxGeometry x="460" y="920" width="120" height="80" as="geometry" />
        </mxCell>
        <mxCell id="p0pjNAmYiR38p7r7fA2l-33" value="" style="endArrow=oval;html=1;rounded=0;endFill=0;" edge="1" parent="1">
          <mxGeometry width="50" height="50" relative="1" as="geometry">
            <mxPoint x="80" y="600" as="sourcePoint" />
            <mxPoint x="80" y="580" as="targetPoint" />
          </mxGeometry>
        </mxCell>
        <mxCell id="p0pjNAmYiR38p7r7fA2l-34" value="Nome" style="edgeLabel;html=1;align=center;verticalAlign=middle;resizable=0;points=[];" vertex="1" connectable="0" parent="p0pjNAmYiR38p7r7fA2l-33">
          <mxGeometry x="0.2548" relative="1" as="geometry">
            <mxPoint y="-20" as="offset" />
          </mxGeometry>
        </mxCell>
        <mxCell id="p0pjNAmYiR38p7r7fA2l-35" value="" style="endArrow=oval;html=1;rounded=0;endFill=0;" edge="1" parent="1">
          <mxGeometry width="50" height="50" relative="1" as="geometry">
            <mxPoint x="130" y="600" as="sourcePoint" />
            <mxPoint x="130" y="580" as="targetPoint" />
          </mxGeometry>
        </mxCell>
        <mxCell id="p0pjNAmYiR38p7r7fA2l-36" value="Cognome" style="edgeLabel;html=1;align=center;verticalAlign=middle;resizable=0;points=[];" vertex="1" connectable="0" parent="p0pjNAmYiR38p7r7fA2l-35">
          <mxGeometry x="0.2548" relative="1" as="geometry">
            <mxPoint y="-20" as="offset" />
          </mxGeometry>
        </mxCell>
        <mxCell id="p0pjNAmYiR38p7r7fA2l-37" value="" style="endArrow=oval;html=1;rounded=0;endFill=0;" edge="1" parent="1">
          <mxGeometry width="50" height="50" relative="1" as="geometry">
            <mxPoint x="200" y="600" as="sourcePoint" />
            <mxPoint x="200" y="580" as="targetPoint" />
          </mxGeometry>
        </mxCell>
        <mxCell id="p0pjNAmYiR38p7r7fA2l-38" value="DataN" style="edgeLabel;html=1;align=center;verticalAlign=middle;resizable=0;points=[];" vertex="1" connectable="0" parent="p0pjNAmYiR38p7r7fA2l-37">
          <mxGeometry x="0.2548" relative="1" as="geometry">
            <mxPoint y="-20" as="offset" />
          </mxGeometry>
        </mxCell>
        <mxCell id="p0pjNAmYiR38p7r7fA2l-39" value="" style="endArrow=none;html=1;rounded=0;endFill=0;startFill=0;startArrow=oval;" edge="1" parent="1">
          <mxGeometry width="50" height="50" relative="1" as="geometry">
            <mxPoint x="60" y="610" as="sourcePoint" />
            <mxPoint x="80" y="610" as="targetPoint" />
          </mxGeometry>
        </mxCell>
        <mxCell id="p0pjNAmYiR38p7r7fA2l-40" value="Via" style="edgeLabel;html=1;align=center;verticalAlign=middle;resizable=0;points=[];" vertex="1" connectable="0" parent="p0pjNAmYiR38p7r7fA2l-39">
          <mxGeometry x="-0.4186" y="-1" relative="1" as="geometry">
            <mxPoint x="-19" y="-2" as="offset" />
          </mxGeometry>
        </mxCell>
        <mxCell id="p0pjNAmYiR38p7r7fA2l-41" value="" style="endArrow=none;html=1;rounded=0;endFill=0;startFill=0;startArrow=oval;" edge="1" parent="1">
          <mxGeometry width="50" height="50" relative="1" as="geometry">
            <mxPoint x="60" y="630" as="sourcePoint" />
            <mxPoint x="80" y="630" as="targetPoint" />
          </mxGeometry>
        </mxCell>
        <mxCell id="p0pjNAmYiR38p7r7fA2l-42" value="Civico" style="edgeLabel;html=1;align=center;verticalAlign=middle;resizable=0;points=[];" vertex="1" connectable="0" parent="p0pjNAmYiR38p7r7fA2l-41">
          <mxGeometry x="-0.4186" y="-1" relative="1" as="geometry">
            <mxPoint x="-26" y="-2" as="offset" />
          </mxGeometry>
        </mxCell>
        <mxCell id="p0pjNAmYiR38p7r7fA2l-43" value="" style="endArrow=none;html=1;rounded=0;endFill=0;startFill=1;startArrow=oval;" edge="1" parent="1">
          <mxGeometry width="50" height="50" relative="1" as="geometry">
            <mxPoint x="60" y="650" as="sourcePoint" />
            <mxPoint x="80" y="650" as="targetPoint" />
          </mxGeometry>
        </mxCell>
        <mxCell id="p0pjNAmYiR38p7r7fA2l-44" value="CodFiscale" style="edgeLabel;html=1;align=center;verticalAlign=middle;resizable=0;points=[];" vertex="1" connectable="0" parent="p0pjNAmYiR38p7r7fA2l-43">
          <mxGeometry x="-0.4186" y="-1" relative="1" as="geometry">
            <mxPoint x="-39" y="-2" as="offset" />
          </mxGeometry>
        </mxCell>
        <mxCell id="p0pjNAmYiR38p7r7fA2l-45" value="" style="endArrow=oval;html=1;rounded=0;endFill=0;" edge="1" parent="1">
          <mxGeometry width="50" height="50" relative="1" as="geometry">
            <mxPoint x="80.67" y="280" as="sourcePoint" />
            <mxPoint x="80.67" y="260" as="targetPoint" />
          </mxGeometry>
        </mxCell>
        <mxCell id="p0pjNAmYiR38p7r7fA2l-46" value="NPatente" style="edgeLabel;html=1;align=center;verticalAlign=middle;resizable=0;points=[];" vertex="1" connectable="0" parent="p0pjNAmYiR38p7r7fA2l-45">
          <mxGeometry x="0.2548" relative="1" as="geometry">
            <mxPoint y="-20" as="offset" />
          </mxGeometry>
        </mxCell>
        <mxCell id="p0pjNAmYiR38p7r7fA2l-47" value="" style="endArrow=oval;html=1;rounded=0;endFill=0;" edge="1" parent="1">
          <mxGeometry width="50" height="50" relative="1" as="geometry">
            <mxPoint x="129.67" y="280" as="sourcePoint" />
            <mxPoint x="129.67" y="260" as="targetPoint" />
          </mxGeometry>
        </mxCell>
        <mxCell id="p0pjNAmYiR38p7r7fA2l-48" value="DataR" style="edgeLabel;html=1;align=center;verticalAlign=middle;resizable=0;points=[];" vertex="1" connectable="0" parent="p0pjNAmYiR38p7r7fA2l-47">
          <mxGeometry x="0.2548" relative="1" as="geometry">
            <mxPoint y="-20" as="offset" />
          </mxGeometry>
        </mxCell>
        <mxCell id="p0pjNAmYiR38p7r7fA2l-49" value="" style="endArrow=oval;html=1;rounded=0;endFill=0;" edge="1" parent="1">
          <mxGeometry width="50" height="50" relative="1" as="geometry">
            <mxPoint x="170" y="280" as="sourcePoint" />
            <mxPoint x="170" y="260" as="targetPoint" />
          </mxGeometry>
        </mxCell>
        <mxCell id="p0pjNAmYiR38p7r7fA2l-50" value="DataS" style="edgeLabel;html=1;align=center;verticalAlign=middle;resizable=0;points=[];" vertex="1" connectable="0" parent="p0pjNAmYiR38p7r7fA2l-49">
          <mxGeometry x="0.2548" relative="1" as="geometry">
            <mxPoint y="-20" as="offset" />
          </mxGeometry>
        </mxCell>
        <mxCell id="p0pjNAmYiR38p7r7fA2l-51" value="" style="endArrow=none;html=1;rounded=0;endFill=0;startFill=0;startArrow=oval;" edge="1" parent="1">
          <mxGeometry width="50" height="50" relative="1" as="geometry">
            <mxPoint x="59.67" y="290" as="sourcePoint" />
            <mxPoint x="79.67" y="290" as="targetPoint" />
          </mxGeometry>
        </mxCell>
        <mxCell id="p0pjNAmYiR38p7r7fA2l-52" value="Tipo" style="edgeLabel;html=1;align=center;verticalAlign=middle;resizable=0;points=[];" vertex="1" connectable="0" parent="p0pjNAmYiR38p7r7fA2l-51">
          <mxGeometry x="-0.4186" y="-1" relative="1" as="geometry">
            <mxPoint x="-22" y="-2" as="offset" />
          </mxGeometry>
        </mxCell>
        <mxCell id="p0pjNAmYiR38p7r7fA2l-53" value="" style="endArrow=oval;html=1;rounded=0;endFill=0;exitX=1;exitY=0;exitDx=0;exitDy=0;" edge="1" parent="1" source="p0pjNAmYiR38p7r7fA2l-1">
          <mxGeometry width="50" height="50" relative="1" as="geometry">
            <mxPoint x="220" y="300" as="sourcePoint" />
            <mxPoint x="220" y="280" as="targetPoint" />
          </mxGeometry>
        </mxCell>
        <mxCell id="p0pjNAmYiR38p7r7fA2l-54" value="CodArmonizzato" style="edgeLabel;html=1;align=center;verticalAlign=middle;resizable=0;points=[];" vertex="1" connectable="0" parent="p0pjNAmYiR38p7r7fA2l-53">
          <mxGeometry x="0.2548" relative="1" as="geometry">
            <mxPoint x="57" as="offset" />
          </mxGeometry>
        </mxCell>
        <mxCell id="p0pjNAmYiR38p7r7fA2l-55" value="" style="endArrow=oval;html=1;rounded=0;endFill=0;" edge="1" parent="1">
          <mxGeometry width="50" height="50" relative="1" as="geometry">
            <mxPoint x="520" y="280" as="sourcePoint" />
            <mxPoint x="520" y="260" as="targetPoint" />
          </mxGeometry>
        </mxCell>
        <mxCell id="p0pjNAmYiR38p7r7fA2l-56" value="Sigla" style="edgeLabel;html=1;align=center;verticalAlign=middle;resizable=0;points=[];" vertex="1" connectable="0" parent="p0pjNAmYiR38p7r7fA2l-55">
          <mxGeometry x="0.2" y="-1" relative="1" as="geometry">
            <mxPoint x="-1" y="-19" as="offset" />
          </mxGeometry>
        </mxCell>
        <mxCell id="p0pjNAmYiR38p7r7fA2l-57" value="" style="endArrow=oval;html=1;rounded=0;endFill=1;" edge="1" parent="1">
          <mxGeometry width="50" height="50" relative="1" as="geometry">
            <mxPoint x="560" y="280" as="sourcePoint" />
            <mxPoint x="560" y="260" as="targetPoint" />
          </mxGeometry>
        </mxCell>
        <mxCell id="p0pjNAmYiR38p7r7fA2l-58" value="Id" style="edgeLabel;html=1;align=center;verticalAlign=middle;resizable=0;points=[];" vertex="1" connectable="0" parent="p0pjNAmYiR38p7r7fA2l-57">
          <mxGeometry x="0.2" y="-1" relative="1" as="geometry">
            <mxPoint x="-1" y="-19" as="offset" />
          </mxGeometry>
        </mxCell>
        <mxCell id="p0pjNAmYiR38p7r7fA2l-59" value="" style="endArrow=oval;html=1;rounded=0;endFill=0;" edge="1" parent="1">
          <mxGeometry width="50" height="50" relative="1" as="geometry">
            <mxPoint x="80" y="920" as="sourcePoint" />
            <mxPoint x="80" y="900" as="targetPoint" />
          </mxGeometry>
        </mxCell>
        <mxCell id="p0pjNAmYiR38p7r7fA2l-60" value="Nome" style="edgeLabel;html=1;align=center;verticalAlign=middle;resizable=0;points=[];" vertex="1" connectable="0" parent="p0pjNAmYiR38p7r7fA2l-59">
          <mxGeometry x="0.2" y="-1" relative="1" as="geometry">
            <mxPoint x="-1" y="-19" as="offset" />
          </mxGeometry>
        </mxCell>
        <mxCell id="p0pjNAmYiR38p7r7fA2l-61" value="" style="endArrow=oval;html=1;rounded=0;endFill=1;" edge="1" parent="1">
          <mxGeometry width="50" height="50" relative="1" as="geometry">
            <mxPoint x="120" y="920" as="sourcePoint" />
            <mxPoint x="120" y="900" as="targetPoint" />
          </mxGeometry>
        </mxCell>
        <mxCell id="p0pjNAmYiR38p7r7fA2l-62" value="Cap" style="edgeLabel;html=1;align=center;verticalAlign=middle;resizable=0;points=[];" vertex="1" connectable="0" parent="p0pjNAmYiR38p7r7fA2l-61">
          <mxGeometry x="0.2" y="-1" relative="1" as="geometry">
            <mxPoint x="-1" y="-19" as="offset" />
          </mxGeometry>
        </mxCell>
        <mxCell id="p0pjNAmYiR38p7r7fA2l-63" value="(1, N)" style="text;html=1;align=center;verticalAlign=middle;whiteSpace=wrap;rounded=0;" vertex="1" parent="1">
          <mxGeometry x="140" y="570" width="60" height="30" as="geometry" />
        </mxCell>
        <mxCell id="p0pjNAmYiR38p7r7fA2l-64" value="(0, 1)" style="text;html=1;align=center;verticalAlign=middle;whiteSpace=wrap;rounded=0;" vertex="1" parent="1">
          <mxGeometry x="140" y="360" width="60" height="30" as="geometry" />
        </mxCell>
        <mxCell id="p0pjNAmYiR38p7r7fA2l-65" value="(1, 1)" style="text;html=1;align=center;verticalAlign=middle;whiteSpace=wrap;rounded=0;" vertex="1" parent="1">
          <mxGeometry x="200" y="320" width="60" height="30" as="geometry" />
        </mxCell>
        <mxCell id="p0pjNAmYiR38p7r7fA2l-66" value="(1, N)" style="text;html=1;align=center;verticalAlign=middle;whiteSpace=wrap;rounded=0;" vertex="1" parent="1">
          <mxGeometry x="460" y="320" width="60" height="30" as="geometry" />
        </mxCell>
        <mxCell id="p0pjNAmYiR38p7r7fA2l-67" value="(1, N)" style="text;html=1;align=center;verticalAlign=middle;whiteSpace=wrap;rounded=0;" vertex="1" parent="1">
          <mxGeometry x="-140" y="570" width="60" height="30" as="geometry" />
        </mxCell>
        <mxCell id="p0pjNAmYiR38p7r7fA2l-68" value="(1, N)" style="text;html=1;align=center;verticalAlign=middle;whiteSpace=wrap;rounded=0;" vertex="1" parent="1">
          <mxGeometry x="140" y="890" width="60" height="30" as="geometry" />
        </mxCell>
        <mxCell id="p0pjNAmYiR38p7r7fA2l-69" value="(1, 1)" style="text;html=1;align=center;verticalAlign=middle;whiteSpace=wrap;rounded=0;" vertex="1" parent="1">
          <mxGeometry x="-140" y="680" width="60" height="30" as="geometry" />
        </mxCell>
        <mxCell id="p0pjNAmYiR38p7r7fA2l-70" value="(1, N)" style="text;html=1;align=center;verticalAlign=middle;whiteSpace=wrap;rounded=0;" vertex="1" parent="1">
          <mxGeometry x="30" y="960" width="60" height="30" as="geometry" />
        </mxCell>
        <mxCell id="p0pjNAmYiR38p7r7fA2l-71" value="" style="endArrow=oval;html=1;rounded=0;endFill=0;" edge="1" parent="1">
          <mxGeometry width="50" height="50" relative="1" as="geometry">
            <mxPoint x="460" y="920" as="sourcePoint" />
            <mxPoint x="460" y="900" as="targetPoint" />
          </mxGeometry>
        </mxCell>
        <mxCell id="p0pjNAmYiR38p7r7fA2l-72" value="Nome" style="edgeLabel;html=1;align=center;verticalAlign=middle;resizable=0;points=[];" vertex="1" connectable="0" parent="p0pjNAmYiR38p7r7fA2l-71">
          <mxGeometry x="0.2" y="-1" relative="1" as="geometry">
            <mxPoint x="-1" y="-19" as="offset" />
          </mxGeometry>
        </mxCell>
        <mxCell id="p0pjNAmYiR38p7r7fA2l-73" value="" style="endArrow=oval;html=1;rounded=0;endFill=1;" edge="1" parent="1">
          <mxGeometry width="50" height="50" relative="1" as="geometry">
            <mxPoint x="500" y="920" as="sourcePoint" />
            <mxPoint x="500" y="900" as="targetPoint" />
          </mxGeometry>
        </mxCell>
        <mxCell id="p0pjNAmYiR38p7r7fA2l-74" value="Id" style="edgeLabel;html=1;align=center;verticalAlign=middle;resizable=0;points=[];" vertex="1" connectable="0" parent="p0pjNAmYiR38p7r7fA2l-73">
          <mxGeometry x="0.2" y="-1" relative="1" as="geometry">
            <mxPoint x="-1" y="-19" as="offset" />
          </mxGeometry>
        </mxCell>
        <mxCell id="p0pjNAmYiR38p7r7fA2l-75" value="(1, 1)" style="text;html=1;align=center;verticalAlign=middle;whiteSpace=wrap;rounded=0;" vertex="1" parent="1">
          <mxGeometry x="20" y="320" width="60" height="30" as="geometry" />
        </mxCell>
        <mxCell id="p0pjNAmYiR38p7r7fA2l-76" value="(1, N)" style="text;html=1;align=center;verticalAlign=middle;whiteSpace=wrap;rounded=0;" vertex="1" parent="1">
          <mxGeometry x="400" y="930" width="60" height="30" as="geometry" />
        </mxCell>
        <mxCell id="p0pjNAmYiR38p7r7fA2l-91" value="" style="endArrow=oval;html=1;rounded=0;endFill=0;" edge="1" parent="1">
          <mxGeometry width="50" height="50" relative="1" as="geometry">
            <mxPoint x="-200" y="600" as="sourcePoint" />
            <mxPoint x="-200" y="580" as="targetPoint" />
          </mxGeometry>
        </mxCell>
        <mxCell id="p0pjNAmYiR38p7r7fA2l-92" value="Nome" style="edgeLabel;html=1;align=center;verticalAlign=middle;resizable=0;points=[];" vertex="1" connectable="0" parent="p0pjNAmYiR38p7r7fA2l-91">
          <mxGeometry x="0.2548" relative="1" as="geometry">
            <mxPoint y="-20" as="offset" />
          </mxGeometry>
        </mxCell>
        <mxCell id="p0pjNAmYiR38p7r7fA2l-93" value="" style="endArrow=oval;html=1;rounded=0;endFill=0;" edge="1" parent="1">
          <mxGeometry width="50" height="50" relative="1" as="geometry">
            <mxPoint x="-150" y="600" as="sourcePoint" />
            <mxPoint x="-150" y="580" as="targetPoint" />
          </mxGeometry>
        </mxCell>
        <mxCell id="p0pjNAmYiR38p7r7fA2l-94" value="Cognome" style="edgeLabel;html=1;align=center;verticalAlign=middle;resizable=0;points=[];" vertex="1" connectable="0" parent="p0pjNAmYiR38p7r7fA2l-93">
          <mxGeometry x="0.2548" relative="1" as="geometry">
            <mxPoint y="-20" as="offset" />
          </mxGeometry>
        </mxCell>
        <mxCell id="p0pjNAmYiR38p7r7fA2l-95" value="" style="endArrow=oval;html=1;rounded=0;endFill=0;" edge="1" parent="1">
          <mxGeometry width="50" height="50" relative="1" as="geometry">
            <mxPoint x="-80" y="600" as="sourcePoint" />
            <mxPoint x="-80" y="580" as="targetPoint" />
          </mxGeometry>
        </mxCell>
        <mxCell id="p0pjNAmYiR38p7r7fA2l-96" value="DataN" style="edgeLabel;html=1;align=center;verticalAlign=middle;resizable=0;points=[];" vertex="1" connectable="0" parent="p0pjNAmYiR38p7r7fA2l-95">
          <mxGeometry x="0.2548" relative="1" as="geometry">
            <mxPoint y="-20" as="offset" />
          </mxGeometry>
        </mxCell>
        <mxCell id="p0pjNAmYiR38p7r7fA2l-97" value="" style="endArrow=none;html=1;rounded=0;endFill=0;startFill=0;startArrow=oval;" edge="1" parent="1">
          <mxGeometry width="50" height="50" relative="1" as="geometry">
            <mxPoint x="-220" y="610" as="sourcePoint" />
            <mxPoint x="-200" y="610" as="targetPoint" />
          </mxGeometry>
        </mxCell>
        <mxCell id="p0pjNAmYiR38p7r7fA2l-98" value="Via" style="edgeLabel;html=1;align=center;verticalAlign=middle;resizable=0;points=[];" vertex="1" connectable="0" parent="p0pjNAmYiR38p7r7fA2l-97">
          <mxGeometry x="-0.4186" y="-1" relative="1" as="geometry">
            <mxPoint x="-19" y="-2" as="offset" />
          </mxGeometry>
        </mxCell>
        <mxCell id="p0pjNAmYiR38p7r7fA2l-99" value="" style="endArrow=none;html=1;rounded=0;endFill=0;startFill=0;startArrow=oval;" edge="1" parent="1">
          <mxGeometry width="50" height="50" relative="1" as="geometry">
            <mxPoint x="-220" y="630" as="sourcePoint" />
            <mxPoint x="-200" y="630" as="targetPoint" />
          </mxGeometry>
        </mxCell>
        <mxCell id="p0pjNAmYiR38p7r7fA2l-100" value="Civico" style="edgeLabel;html=1;align=center;verticalAlign=middle;resizable=0;points=[];" vertex="1" connectable="0" parent="p0pjNAmYiR38p7r7fA2l-99">
          <mxGeometry x="-0.4186" y="-1" relative="1" as="geometry">
            <mxPoint x="-26" y="-2" as="offset" />
          </mxGeometry>
        </mxCell>
        <mxCell id="p0pjNAmYiR38p7r7fA2l-101" value="" style="endArrow=none;html=1;rounded=0;endFill=0;startFill=1;startArrow=oval;" edge="1" parent="1">
          <mxGeometry width="50" height="50" relative="1" as="geometry">
            <mxPoint x="-220" y="650" as="sourcePoint" />
            <mxPoint x="-200" y="650" as="targetPoint" />
          </mxGeometry>
        </mxCell>
        <mxCell id="p0pjNAmYiR38p7r7fA2l-102" value="CodF" style="edgeLabel;html=1;align=center;verticalAlign=middle;resizable=0;points=[];" vertex="1" connectable="0" parent="p0pjNAmYiR38p7r7fA2l-101">
          <mxGeometry x="-0.4186" y="-1" relative="1" as="geometry">
            <mxPoint x="-24" y="-2" as="offset" />
          </mxGeometry>
        </mxCell>
        <mxCell id="p0pjNAmYiR38p7r7fA2l-104" value="" style="endArrow=none;html=1;rounded=0;endFill=0;startFill=0;startArrow=oval;" edge="1" parent="1">
          <mxGeometry width="50" height="50" relative="1" as="geometry">
            <mxPoint x="-220" y="670" as="sourcePoint" />
            <mxPoint x="-200" y="670" as="targetPoint" />
          </mxGeometry>
        </mxCell>
        <mxCell id="p0pjNAmYiR38p7r7fA2l-105" value="NTelefono" style="edgeLabel;html=1;align=center;verticalAlign=middle;resizable=0;points=[];" vertex="1" connectable="0" parent="p0pjNAmYiR38p7r7fA2l-104">
          <mxGeometry x="-0.4186" y="-1" relative="1" as="geometry">
            <mxPoint x="-36" y="-2" as="offset" />
          </mxGeometry>
        </mxCell>
        <mxCell id="p0pjNAmYiR38p7r7fA2l-106" value="" style="endArrow=oval;html=1;rounded=0;endFill=0;exitX=1;exitY=0;exitDx=0;exitDy=0;" edge="1" parent="1">
          <mxGeometry width="50" height="50" relative="1" as="geometry">
            <mxPoint x="-80" y="600" as="sourcePoint" />
            <mxPoint x="-60" y="600" as="targetPoint" />
          </mxGeometry>
        </mxCell>
        <mxCell id="p0pjNAmYiR38p7r7fA2l-107" value="Email" style="edgeLabel;html=1;align=center;verticalAlign=middle;resizable=0;points=[];" vertex="1" connectable="0" parent="p0pjNAmYiR38p7r7fA2l-106">
          <mxGeometry x="0.2548" relative="1" as="geometry">
            <mxPoint x="28" as="offset" />
          </mxGeometry>
        </mxCell>
        <mxCell id="p0pjNAmYiR38p7r7fA2l-108" value="(1, 1)" style="text;html=1;align=center;verticalAlign=middle;whiteSpace=wrap;rounded=0;" vertex="1" parent="1">
          <mxGeometry x="200" y="930" width="60" height="30" as="geometry" />
        </mxCell>
        <mxCell id="p0pjNAmYiR38p7r7fA2l-109" value="(1, 1)" style="text;html=1;align=center;verticalAlign=middle;whiteSpace=wrap;rounded=0;" vertex="1" parent="1">
          <mxGeometry x="140" y="680" width="60" height="30" as="geometry" />
        </mxCell>
        <mxCell id="p0pjNAmYiR38p7r7fA2l-110" value="" style="endArrow=oval;html=1;rounded=0;endFill=1;" edge="1" parent="1">
          <mxGeometry width="50" height="50" relative="1" as="geometry">
            <mxPoint x="199.65" y="280" as="sourcePoint" />
            <mxPoint x="199.65" y="260" as="targetPoint" />
          </mxGeometry>
        </mxCell>
        <mxCell id="p0pjNAmYiR38p7r7fA2l-111" value="Id" style="edgeLabel;html=1;align=center;verticalAlign=middle;resizable=0;points=[];" vertex="1" connectable="0" parent="p0pjNAmYiR38p7r7fA2l-110">
          <mxGeometry x="0.2548" relative="1" as="geometry">
            <mxPoint y="-20" as="offset" />
          </mxGeometry>
        </mxCell>
      </root>
    </mxGraphModel>
  </diagram>
</mxfile>
